<svg xmlns="http://www.w3.org/2000/svg" version="1.1" width="500" height="500">
  <line x1="50" y1="50" x2="70" y2="50" stroke="#808080" stroke-width="2" />
  <line x1="70" y1="50" x2="90" y2="50" stroke="#808080" stroke-width="2" />
  <line x1="90" y1="50" x2="110" y2="50" stroke="#808080" stroke-width="2" />
  <line x1="110" y1="50" x2="130" y2="50" stroke="#808080" stroke-width="2" />
  <line x1="130" y1="50" x2="150" y2="50" stroke="#808080" stroke-width="2" />
  <line x1="150" y1="50" x2="170" y2="50" stroke="#808080" stroke-width="2" />
  <line x1="170" y1="50" x2="190" y2="50" stroke="#808080" stroke-width="2" />
  <line x1="190" y1="50" x2="210" y2="50" stroke="#808080" stroke-width="2" />
  <line x1="210" y1="50" x2="230" y2="50" stroke="#808080" stroke-width="2" />
  <line x1="50" y1="70" x2="70" y2="70" stroke="#808080" stroke-width="2" />
  <line x1="70" y1="70" x2="90" y2="70" stroke="#808080" stroke-width="2" />
  <line x1="90" y1="70" x2="110" y2="70" stroke="#808080" stroke-width="2" />
  <line x1="110" y1="70" x2="130" y2="70" stroke="#808080" stroke-width="2" />
  <line x1="130" y1="70" x2="150" y2="70" stroke="#808080" stroke-width="2" />
  <line x1="150" y1="70" x2="170" y2="70" stroke="#808080" stroke-width="2" />
  <line x1="170" y1="70" x2="190" y2="70" stroke="#808080" stroke-width="2" />
  <line x1="190" y1="70" x2="210" y2="70" stroke="#808080" stroke-width="2" />
  <line x1="210" y1="70" x2="230" y2="70" stroke="#808080" stroke-width="2" />
  <line x1="50" y1="90" x2="70" y2="90" stroke="#808080" stroke-width="2" />
  <line x1="70" y1="90" x2="90" y2="90" stroke="#808080" stroke-width="2" />
  <line x1="90" y1="90" x2="110" y2="90" stroke="#808080" stroke-width="2" />
  <line x1="110" y1="90" x2="130" y2="90" stroke="#808080" stroke-width="2" />
  <line x1="130" y1="90" x2="150" y2="90" stroke="#808080" stroke-width="2" />
  <line x1="150" y1="90" x2="170" y2="90" stroke="#808080" stroke-width="2" />
  <line x1="170" y1="90" x2="190" y2="90" stroke="#808080" stroke-width="2" />
  <line x1="190" y1="90" x2="210" y2="90" stroke="#808080" stroke-width="2" />
  <line x1="210" y1="90" x2="230" y2="90" stroke="#808080" stroke-width="2" />
  <line x1="50" y1="110" x2="70" y2="110" stroke="#808080" stroke-width="2" />
  <line x1="70" y1="110" x2="90" y2="110" stroke="#808080" stroke-width="2" />
  <line x1="90" y1="110" x2="110" y2="110" stroke="#808080" stroke-width="2" />
  <line x1="110" y1="110" x2="130" y2="110" stroke="#808080" stroke-width="2" />
  <line x1="130" y1="110" x2="150" y2="110" stroke="#808080" stroke-width="2" />
  <line x1="150" y1="110" x2="170" y2="110" stroke="#808080" stroke-width="2" />
  <line x1="170" y1="110" x2="190" y2="110" stroke="#808080" stroke-width="2" />
  <line x1="190" y1="110" x2="210" y2="110" stroke="#808080" stroke-width="2" />
  <line x1="210" y1="110" x2="230" y2="110" stroke="#808080" stroke-width="2" />
  <line x1="50" y1="130" x2="70" y2="130" stroke="#808080" stroke-width="2" />
  <line x1="70" y1="130" x2="90" y2="130" stroke="#808080" stroke-width="2" />
  <line x1="90" y1="130" x2="110" y2="130" stroke="#808080" stroke-width="2" />
  <line x1="110" y1="130" x2="130" y2="130" stroke="#808080" stroke-width="2" />
  <line x1="130" y1="130" x2="150" y2="130" stroke="#808080" stroke-width="2" />
  <line x1="150" y1="130" x2="170" y2="130" stroke="#808080" stroke-width="2" />
  <line x1="170" y1="130" x2="190" y2="130" stroke="#808080" stroke-width="2" />
  <line x1="190" y1="130" x2="210" y2="130" stroke="#808080" stroke-width="2" />
  <line x1="210" y1="130" x2="230" y2="130" stroke="#808080" stroke-width="2" />
  <line x1="50" y1="150" x2="70" y2="150" stroke="#808080" stroke-width="2" />
  <line x1="70" y1="150" x2="90" y2="150" stroke="#808080" stroke-width="2" />
  <line x1="90" y1="150" x2="110" y2="150" stroke="#808080" stroke-width="2" />
  <line x1="110" y1="150" x2="130" y2="150" stroke="#808080" stroke-width="2" />
  <line x1="130" y1="150" x2="150" y2="150" stroke="#808080" stroke-width="2" />
  <line x1="150" y1="150" x2="170" y2="150" stroke="#808080" stroke-width="2" />
  <line x1="170" y1="150" x2="190" y2="150" stroke="#808080" stroke-width="2" />
  <line x1="190" y1="150" x2="210" y2="150" stroke="#808080" stroke-width="2" />
  <line x1="210" y1="150" x2="230" y2="150" stroke="#808080" stroke-width="2" />
  <line x1="50" y1="170" x2="70" y2="170" stroke="#808080" stroke-width="2" />
  <line x1="70" y1="170" x2="90" y2="170" stroke="#808080" stroke-width="2" />
  <line x1="90" y1="170" x2="110" y2="170" stroke="#808080" stroke-width="2" />
  <line x1="110" y1="170" x2="130" y2="170" stroke="#808080" stroke-width="2" />
  <line x1="130" y1="170" x2="150" y2="170" stroke="#808080" stroke-width="2" />
  <line x1="150" y1="170" x2="170" y2="170" stroke="#808080" stroke-width="2" />
  <line x1="170" y1="170" x2="190" y2="170" stroke="#808080" stroke-width="2" />
  <line x1="190" y1="170" x2="210" y2="170" stroke="#808080" stroke-width="2" />
  <line x1="210" y1="170" x2="230" y2="170" stroke="#808080" stroke-width="2" />
  <line x1="50" y1="190" x2="70" y2="190" stroke="#808080" stroke-width="2" />
  <line x1="70" y1="190" x2="90" y2="190" stroke="#808080" stroke-width="2" />
  <line x1="90" y1="190" x2="110" y2="190" stroke="#808080" stroke-width="2" />
  <line x1="110" y1="190" x2="130" y2="190" stroke="#808080" stroke-width="2" />
  <line x1="130" y1="190" x2="150" y2="190" stroke="#808080" stroke-width="2" />
  <line x1="150" y1="190" x2="170" y2="190" stroke="#808080" stroke-width="2" />
  <line x1="170" y1="190" x2="190" y2="190" stroke="#808080" stroke-width="2" />
  <line x1="190" y1="190" x2="210" y2="190" stroke="#808080" stroke-width="2" />
  <line x1="210" y1="190" x2="230" y2="190" stroke="#808080" stroke-width="2" />
  <line x1="50" y1="210" x2="70" y2="210" stroke="#808080" stroke-width="2" />
  <line x1="70" y1="210" x2="90" y2="210" stroke="#808080" stroke-width="2" />
  <line x1="90" y1="210" x2="110" y2="210" stroke="#808080" stroke-width="2" />
  <line x1="110" y1="210" x2="130" y2="210" stroke="#808080" stroke-width="2" />
  <line x1="130" y1="210" x2="150" y2="210" stroke="#808080" stroke-width="2" />
  <line x1="150" y1="210" x2="170" y2="210" stroke="#808080" stroke-width="2" />
  <line x1="170" y1="210" x2="190" y2="210" stroke="#808080" stroke-width="2" />
  <line x1="190" y1="210" x2="210" y2="210" stroke="#808080" stroke-width="2" />
  <line x1="210" y1="210" x2="230" y2="210" stroke="#808080" stroke-width="2" />
  <line x1="50" y1="230" x2="70" y2="230" stroke="#808080" stroke-width="2" />
  <line x1="70" y1="230" x2="90" y2="230" stroke="#808080" stroke-width="2" />
  <line x1="90" y1="230" x2="110" y2="230" stroke="#808080" stroke-width="2" />
  <line x1="110" y1="230" x2="130" y2="230" stroke="#808080" stroke-width="2" />
  <line x1="130" y1="230" x2="150" y2="230" stroke="#808080" stroke-width="2" />
  <line x1="150" y1="230" x2="170" y2="230" stroke="#808080" stroke-width="2" />
  <line x1="170" y1="230" x2="190" y2="230" stroke="#808080" stroke-width="2" />
  <line x1="190" y1="230" x2="210" y2="230" stroke="#808080" stroke-width="2" />
  <line x1="210" y1="230" x2="230" y2="230" stroke="#808080" stroke-width="2" />
  <line x1="50" y1="50" x2="50" y2="70" stroke="#808080" stroke-width="2" />
  <line x1="70" y1="50" x2="70" y2="70" stroke="#808080" stroke-width="2" />
  <line x1="90" y1="50" x2="90" y2="70" stroke="#808080" stroke-width="2" />
  <line x1="110" y1="50" x2="110" y2="70" stroke="#808080" stroke-width="2" />
  <line x1="130" y1="50" x2="130" y2="70" stroke="#808080" stroke-width="2" />
  <line x1="150" y1="50" x2="150" y2="70" stroke="#808080" stroke-width="2" />
  <line x1="170" y1="50" x2="170" y2="70" stroke="#808080" stroke-width="2" />
  <line x1="190" y1="50" x2="190" y2="70" stroke="#808080" stroke-width="2" />
  <line x1="210" y1="50" x2="210" y2="70" stroke="#808080" stroke-width="2" />
  <line x1="230" y1="50" x2="230" y2="70" stroke="#808080" stroke-width="2" />
  <line x1="50" y1="70" x2="50" y2="90" stroke="#808080" stroke-width="2" />
  <line x1="70" y1="70" x2="70" y2="90" stroke="#808080" stroke-width="2" />
  <line x1="90" y1="70" x2="90" y2="90" stroke="#808080" stroke-width="2" />
  <line x1="110" y1="70" x2="110" y2="90" stroke="#808080" stroke-width="2" />
  <line x1="130" y1="70" x2="130" y2="90" stroke="#808080" stroke-width="2" />
  <line x1="150" y1="70" x2="150" y2="90" stroke="#808080" stroke-width="2" />
  <line x1="170" y1="70" x2="170" y2="90" stroke="#808080" stroke-width="2" />
  <line x1="190" y1="70" x2="190" y2="90" stroke="#808080" stroke-width="2" />
  <line x1="210" y1="70" x2="210" y2="90" stroke="#808080" stroke-width="2" />
  <line x1="230" y1="70" x2="230" y2="90" stroke="#808080" stroke-width="2" />
  <line x1="50" y1="90" x2="50" y2="110" stroke="#808080" stroke-width="2" />
  <line x1="70" y1="90" x2="70" y2="110" stroke="#808080" stroke-width="2" />
  <line x1="90" y1="90" x2="90" y2="110" stroke="#808080" stroke-width="2" />
  <line x1="110" y1="90" x2="110" y2="110" stroke="#808080" stroke-width="2" />
  <line x1="130" y1="90" x2="130" y2="110" stroke="#808080" stroke-width="2" />
  <line x1="150" y1="90" x2="150" y2="110" stroke="#808080" stroke-width="2" />
  <line x1="170" y1="90" x2="170" y2="110" stroke="#808080" stroke-width="2" />
  <line x1="190" y1="90" x2="190" y2="110" stroke="#808080" stroke-width="2" />
  <line x1="210" y1="90" x2="210" y2="110" stroke="#808080" stroke-width="2" />
  <line x1="230" y1="90" x2="230" y2="110" stroke="#808080" stroke-width="2" />
  <line x1="50" y1="110" x2="50" y2="130" stroke="#808080" stroke-width="2" />
  <line x1="70" y1="110" x2="70" y2="130" stroke="#808080" stroke-width="2" />
  <line x1="90" y1="110" x2="90" y2="130" stroke="#808080" stroke-width="2" />
  <line x1="110" y1="110" x2="110" y2="130" stroke="#808080" stroke-width="2" />
  <line x1="130" y1="110" x2="130" y2="130" stroke="#808080" stroke-width="2" />
  <line x1="150" y1="110" x2="150" y2="130" stroke="#808080" stroke-width="2" />
  <line x1="170" y1="110" x2="170" y2="130" stroke="#808080" stroke-width="2" />
  <line x1="190" y1="110" x2="190" y2="130" stroke="#808080" stroke-width="2" />
  <line x1="210" y1="110" x2="210" y2="130" stroke="#808080" stroke-width="2" />
  <line x1="230" y1="110" x2="230" y2="130" stroke="#808080" stroke-width="2" />
  <line x1="50" y1="130" x2="50" y2="150" stroke="#808080" stroke-width="2" />
  <line x1="70" y1="130" x2="70" y2="150" stroke="#808080" stroke-width="2" />
  <line x1="90" y1="130" x2="90" y2="150" stroke="#808080" stroke-width="2" />
  <line x1="110" y1="130" x2="110" y2="150" stroke="#808080" stroke-width="2" />
  <line x1="130" y1="130" x2="130" y2="150" stroke="#808080" stroke-width="2" />
  <line x1="150" y1="130" x2="150" y2="150" stroke="#808080" stroke-width="2" />
  <line x1="170" y1="130" x2="170" y2="150" stroke="#808080" stroke-width="2" />
  <line x1="190" y1="130" x2="190" y2="150" stroke="#808080" stroke-width="2" />
  <line x1="210" y1="130" x2="210" y2="150" stroke="#808080" stroke-width="2" />
  <line x1="230" y1="130" x2="230" y2="150" stroke="#808080" stroke-width="2" />
  <line x1="50" y1="150" x2="50" y2="170" stroke="#808080" stroke-width="2" />
  <line x1="70" y1="150" x2="70" y2="170" stroke="#808080" stroke-width="2" />
  <line x1="90" y1="150" x2="90" y2="170" stroke="#808080" stroke-width="2" />
  <line x1="110" y1="150" x2="110" y2="170" stroke="#808080" stroke-width="2" />
  <line x1="130" y1="150" x2="130" y2="170" stroke="#808080" stroke-width="2" />
  <line x1="150" y1="150" x2="150" y2="170" stroke="#808080" stroke-width="2" />
  <line x1="170" y1="150" x2="170" y2="170" stroke="#808080" stroke-width="2" />
  <line x1="190" y1="150" x2="190" y2="170" stroke="#808080" stroke-width="2" />
  <line x1="210" y1="150" x2="210" y2="170" stroke="#808080" stroke-width="2" />
  <line x1="230" y1="150" x2="230" y2="170" stroke="#808080" stroke-width="2" />
  <line x1="50" y1="170" x2="50" y2="190" stroke="#808080" stroke-width="2" />
  <line x1="70" y1="170" x2="70" y2="190" stroke="#808080" stroke-width="2" />
  <line x1="90" y1="170" x2="90" y2="190" stroke="#808080" stroke-width="2" />
  <line x1="110" y1="170" x2="110" y2="190" stroke="#808080" stroke-width="2" />
  <line x1="130" y1="170" x2="130" y2="190" stroke="#808080" stroke-width="2" />
  <line x1="150" y1="170" x2="150" y2="190" stroke="#808080" stroke-width="2" />
  <line x1="170" y1="170" x2="170" y2="190" stroke="#808080" stroke-width="2" />
  <line x1="190" y1="170" x2="190" y2="190" stroke="#808080" stroke-width="2" />
  <line x1="210" y1="170" x2="210" y2="190" stroke="#808080" stroke-width="2" />
  <line x1="230" y1="170" x2="230" y2="190" stroke="#808080" stroke-width="2" />
  <line x1="50" y1="190" x2="50" y2="210" stroke="#808080" stroke-width="2" />
  <line x1="70" y1="190" x2="70" y2="210" stroke="#808080" stroke-width="2" />
  <line x1="90" y1="190" x2="90" y2="210" stroke="#808080" stroke-width="2" />
  <line x1="110" y1="190" x2="110" y2="210" stroke="#808080" stroke-width="2" />
  <line x1="130" y1="190" x2="130" y2="210" stroke="#808080" stroke-width="2" />
  <line x1="150" y1="190" x2="150" y2="210" stroke="#808080" stroke-width="2" />
  <line x1="170" y1="190" x2="170" y2="210" stroke="#808080" stroke-width="2" />
  <line x1="190" y1="190" x2="190" y2="210" stroke="#808080" stroke-width="2" />
  <line x1="210" y1="190" x2="210" y2="210" stroke="#808080" stroke-width="2" />
  <line x1="230" y1="190" x2="230" y2="210" stroke="#808080" stroke-width="2" />
  <line x1="50" y1="210" x2="50" y2="230" stroke="#808080" stroke-width="2" />
  <line x1="70" y1="210" x2="70" y2="230" stroke="#808080" stroke-width="2" />
  <line x1="90" y1="210" x2="90" y2="230" stroke="#808080" stroke-width="2" />
  <line x1="110" y1="210" x2="110" y2="230" stroke="#808080" stroke-width="2" />
  <line x1="130" y1="210" x2="130" y2="230" stroke="#808080" stroke-width="2" />
  <line x1="150" y1="210" x2="150" y2="230" stroke="#808080" stroke-width="2" />
  <line x1="170" y1="210" x2="170" y2="230" stroke="#808080" stroke-width="2" />
  <line x1="190" y1="210" x2="190" y2="230" stroke="#808080" stroke-width="2" />
  <line x1="210" y1="210" x2="210" y2="230" stroke="#808080" stroke-width="2" />
  <line x1="230" y1="210" x2="230" y2="230" stroke="#808080" stroke-width="2" />
  <circle cx="50" cy="50" r="4" fill="#000000" />
  <circle cx="70" cy="50" r="4" fill="#0000ff" />
  <circle cx="90" cy="50" r="4" fill="#0000ff" />
  <circle cx="110" cy="50" r="4" fill="#0000ff" />
  <circle cx="130" cy="50" r="4" fill="#0000ff" />
  <circle cx="150" cy="50" r="4" fill="#0000ff" />
  <circle cx="170" cy="50" r="4" fill="#0000ff" />
  <circle cx="190" cy="50" r="4" fill="#0000ff" />
  <circle cx="210" cy="50" r="4" fill="#0000ff" />
  <circle cx="230" cy="50" r="4" fill="#000000" />
  <circle cx="50" cy="70" r="4" fill="#0000ff" />
  <circle cx="70" cy="70" r="4" fill="#0000ff" />
  <circle cx="90" cy="70" r="4" fill="#0000ff" />
  <circle cx="110" cy="70" r="4" fill="#0000ff" />
  <circle cx="130" cy="70" r="4" fill="#0000ff" />
  <circle cx="150" cy="70" r="4" fill="#0000ff" />
  <circle cx="170" cy="70" r="4" fill="#0000ff" />
  <circle cx="190" cy="70" r="4" fill="#0000ff" />
  <circle cx="210" cy="70" r="4" fill="#0000ff" />
  <circle cx="230" cy="70" r="4" fill="#0000ff" />
  <circle cx="50" cy="90" r="4" fill="#0000ff" />
  <circle cx="70" cy="90" r="4" fill="#0000ff" />
  <circle cx="90" cy="90" r="4" fill="#0000ff" />
  <circle cx="110" cy="90" r="4" fill="#0000ff" />
  <circle cx="130" cy="90" r="4" fill="#0000ff" />
  <circle cx="150" cy="90" r="4" fill="#0000ff" />
  <circle cx="170" cy="90" r="4" fill="#0000ff" />
  <circle cx="190" cy="90" r="4" fill="#0000ff" />
  <circle cx="210" cy="90" r="4" fill="#0000ff" />
  <circle cx="230" cy="90" r="4" fill="#0000ff" />
  <circle cx="50" cy="110" r="4" fill="#0000ff" />
  <circle cx="70" cy="110" r="4" fill="#0000ff" />
  <circle cx="90" cy="110" r="4" fill="#0000ff" />
  <circle cx="110" cy="110" r="4" fill="#0000ff" />
  <circle cx="130" cy="110" r="4" fill="#0000ff" />
  <circle cx="150" cy="110" r="4" fill="#0000ff" />
  <circle cx="170" cy="110" r="4" fill="#0000ff" />
  <circle cx="190" cy="110" r="4" fill="#0000ff" />
  <circle cx="210" cy="110" r="4" fill="#0000ff" />
  <circle cx="230" cy="110" r="4" fill="#0000ff" />
  <circle cx="50" cy="130" r="4" fill="#0000ff" />
  <circle cx="70" cy="130" r="4" fill="#0000ff" />
  <circle cx="90" cy="130" r="4" fill="#0000ff" />
  <circle cx="110" cy="130" r="4" fill="#0000ff" />
  <circle cx="130" cy="130" r="4" fill="#0000ff" />
  <circle cx="150" cy="130" r="4" fill="#0000ff" />
  <circle cx="170" cy="130" r="4" fill="#0000ff" />
  <circle cx="190" cy="130" r="4" fill="#0000ff" />
  <circle cx="210" cy="130" r="4" fill="#0000ff" />
  <circle cx="230" cy="130" r="4" fill="#0000ff" />
  <circle cx="50" cy="150" r="4" fill="#0000ff" />
  <circle cx="70" cy="150" r="4" fill="#0000ff" />
  <circle cx="90" cy="150" r="4" fill="#0000ff" />
  <circle cx="110" cy="150" r="4" fill="#0000ff" />
  <circle cx="130" cy="150" r="4" fill="#0000ff" />
  <circle cx="150" cy="150" r="4" fill="#ff0000" />
  <circle cx="170" cy="150" r="4" fill="#0000ff" />
  <circle cx="190" cy="150" r="4" fill="#0000ff" />
  <circle cx="210" cy="150" r="4" fill="#0000ff" />
  <circle cx="230" cy="150" r="4" fill="#0000ff" />
  <circle cx="50" cy="170" r="4" fill="#0000ff" />
  <circle cx="70" cy="170" r="4" fill="#0000ff" />
  <circle cx="90" cy="170" r="4" fill="#0000ff" />
  <circle cx="110" cy="170" r="4" fill="#0000ff" />
  <circle cx="130" cy="170" r="4" fill="#0000ff" />
  <circle cx="150" cy="170" r="4" fill="#0000ff" />
  <circle cx="170" cy="170" r="4" fill="#0000ff" />
  <circle cx="190" cy="170" r="4" fill="#0000ff" />
  <circle cx="210" cy="170" r="4" fill="#0000ff" />
  <circle cx="230" cy="170" r="4" fill="#0000ff" />
  <circle cx="50" cy="190" r="4" fill="#0000ff" />
  <circle cx="70" cy="190" r="4" fill="#0000ff" />
  <circle cx="90" cy="190" r="4" fill="#0000ff" />
  <circle cx="110" cy="190" r="4" fill="#0000ff" />
  <circle cx="130" cy="190" r="4" fill="#0000ff" />
  <circle cx="150" cy="190" r="4" fill="#0000ff" />
  <circle cx="170" cy="190" r="4" fill="#0000ff" />
  <circle cx="190" cy="190" r="4" fill="#0000ff" />
  <circle cx="210" cy="190" r="4" fill="#0000ff" />
  <circle cx="230" cy="190" r="4" fill="#0000ff" />
  <circle cx="50" cy="210" r="4" fill="#0000ff" />
  <circle cx="70" cy="210" r="4" fill="#0000ff" />
  <circle cx="90" cy="210" r="4" fill="#0000ff" />
  <circle cx="110" cy="210" r="4" fill="#0000ff" />
  <circle cx="130" cy="210" r="4" fill="#0000ff" />
  <circle cx="150" cy="210" r="4" fill="#0000ff" />
  <circle cx="170" cy="210" r="4" fill="#0000ff" />
  <circle cx="190" cy="210" r="4" fill="#0000ff" />
  <circle cx="210" cy="210" r="4" fill="#0000ff" />
  <circle cx="230" cy="210" r="4" fill="#0000ff" />
  <circle cx="50" cy="230" r="4" fill="#000000" />
  <circle cx="70" cy="230" r="4" fill="#0000ff" />
  <circle cx="90" cy="230" r="4" fill="#0000ff" />
  <circle cx="110" cy="230" r="4" fill="#0000ff" />
  <circle cx="130" cy="230" r="4" fill="#0000ff" />
  <circle cx="150" cy="230" r="4" fill="#0000ff" />
  <circle cx="170" cy="230" r="4" fill="#0000ff" />
  <circle cx="190" cy="230" r="4" fill="#0000ff" />
  <circle cx="210" cy="230" r="4" fill="#0000ff" />
  <circle cx="230" cy="230" r="4" fill="#000000" />
</svg>